HIERARCHY
ROOT Hips
{
    OFFSET 0.000000 0.000000 0.000000
    CHANNELS 6 Xposition Yposition Zposition Zrotation Yrotation Xrotation
    JOINT Chest
    {
        OFFSET 0.000000 1.634758 -0.000000
        CHANNELS 3 Zrotation Yrotation Xrotation
        JOINT Chest2
        {
            OFFSET 0.000000 2.197341 0.000000
            CHANNELS 3 Zrotation Yrotation Xrotation
            JOINT Neck
            {
                OFFSET 0.000000 0.961544 0.000000
                CHANNELS 3 Zrotation Yrotation Xrotation
                JOINT Head
                {
                    OFFSET 0.000000 0.632542 -0.032565
                    CHANNELS 3 Zrotation Yrotation Xrotation
                    End Site
                    {
                        OFFSET -0.000001 0.439502 2.922845
                    }
                }
            }
            JOINT LeftCollar
            {
                OFFSET 0.167536 0.778237 -0.168280
                CHANNELS 3 Zrotation Yrotation Xrotation
                JOINT LeftShoulder
                {
                    OFFSET 0.831514 -0.002900 0.006458
                    CHANNELS 3 Zrotation Yrotation Xrotation
                    JOINT LeftElbow
                    {
                        OFFSET 2.272872 -0.026639 0.059314
                        CHANNELS 3 Zrotation Yrotation Xrotation
                        JOINT LeftWrist
                        {
                            OFFSET 2.081982 -0.024402 0.054333
                            CHANNELS 3 Zrotation Yrotation Xrotation
                            JOINT LeftHandThumb1
                            {
                                OFFSET 0.218903 -0.128645 0.283837
                                CHANNELS 3 Zrotation Yrotation Xrotation
                                JOINT LeftHandThumb2
                                {
                                    OFFSET 0.137157 -0.025101 0.077902
                                    CHANNELS 3 Zrotation Yrotation Xrotation
                                    JOINT LeftHandThumb3
                                    {
                                        OFFSET 0.132616 -0.117038 0.047482
                                        CHANNELS 3 Zrotation Yrotation Xrotation
                                        End Site
                                        {
                                            OFFSET 0.228651 -0.136099 0.032131
                                        }
                                    }
                                }
                            }
                            JOINT LeftHandFore1
                            {
                                OFFSET 0.767340 -0.016076 0.196678
                                CHANNELS 3 Zrotation Yrotation Xrotation
                                JOINT LeftHandFore2
                                {
                                    OFFSET 0.140318 -0.164598 -0.014628
                                    CHANNELS 3 Zrotation Yrotation Xrotation
                                    JOINT LeftHandFore3
                                    {
                                        OFFSET -0.127236 -0.019618 0.013744
                                        CHANNELS 3 Zrotation Yrotation Xrotation
                                        End Site
                                        {
                                            OFFSET -0.114166 0.153293 0.028887
                                        }
                                    }
                                }
                            }
                            JOINT LeftHandMiddle1
                            {
                                OFFSET 0.709887 -0.008320 0.018526
                                CHANNELS 3 Zrotation Yrotation Xrotation
                                JOINT LeftHandMiddle2
                                {
                                    OFFSET 0.105041 -0.220988 0.013940
                                    CHANNELS 3 Zrotation Yrotation Xrotation
                                    JOINT LeftHandMiddle3
                                    {
                                        OFFSET -0.135432 0.053123 -0.014806
                                        CHANNELS 3 Zrotation Yrotation Xrotation
                                        End Site
                                        {
                                            OFFSET -0.128443 0.197397 -0.012920
                                        }
                                    }
                                }
                            }
                            JOINT LeftHandRing1
                            {
                                OFFSET 0.743817 -0.005823 -0.153668
                                CHANNELS 3 Zrotation Yrotation Xrotation
                                JOINT LeftHandRing2
                                {
                                    OFFSET 0.114947 -0.332268 0.033444
                                    CHANNELS 3 Zrotation Yrotation Xrotation
                                    JOINT LeftHandRing3
                                    {
                                        OFFSET -0.128136 0.044286 -0.015018
                                        CHANNELS 3 Zrotation Yrotation Xrotation
                                        End Site
                                        {
                                            OFFSET -0.045289 0.110308 -0.014177
                                        }
                                    }
                                }
                            }
                            JOINT LeftHandLittle1
                            {
                                OFFSET 0.689408 -0.053302 -0.308304
                                CHANNELS 3 Zrotation Yrotation Xrotation
                                JOINT LeftHandLittle2
                                {
                                    OFFSET 0.051423 -0.185972 0.028704
                                    CHANNELS 3 Zrotation Yrotation Xrotation
                                    JOINT LeftHandLittle3
                                    {
                                        OFFSET -0.118249 0.001393 -0.022616
                                        CHANNELS 3 Zrotation Yrotation Xrotation
                                        End Site
                                        {
                                            OFFSET -0.081277 0.165695 -0.047200
                                        }
                                    }
                                }
                            }
                        }
                    }
                }
            }
            JOINT RightCollar
            {
                OFFSET -0.167536 0.778237 -0.168280
                CHANNELS 3 Zrotation Yrotation Xrotation
                JOINT RightShoulder
                {
                    OFFSET -0.831514 -0.002900 0.006457
                    CHANNELS 3 Zrotation Yrotation Xrotation
                    JOINT RightElbow
                    {
                        OFFSET -2.272872 -0.026639 0.059313
                        CHANNELS 3 Zrotation Yrotation Xrotation
                        JOINT RightWrist
                        {
                            OFFSET -2.081982 -0.024402 0.054331
                            CHANNELS 3 Zrotation Yrotation Xrotation
                            JOINT RightHandThumb1
                            {
                                OFFSET -0.218911 -0.128571 0.283837
                                CHANNELS 3 Zrotation Yrotation Xrotation
                                JOINT RightHandThumb2
                                {
                                    OFFSET -0.137157 -0.025101 0.077902
                                    CHANNELS 3 Zrotation Yrotation Xrotation
                                    JOINT RightHandThumb3
                                    {
                                        OFFSET -0.179958 -0.032815 -0.008807
                                        CHANNELS 3 Zrotation Yrotation Xrotation
                                        End Site
                                        {
                                            OFFSET -0.247197 -0.103119 0.009840
                                        }
                                    }
                                }
                            }
                            JOINT RightHandFore1
                            {
                                OFFSET -0.767344 -0.015991 0.196679
                                CHANNELS 3 Zrotation Yrotation Xrotation
                                JOINT RightHandFore2
                                {
                                    OFFSET -0.140358 -0.164572 -0.014583
                                    CHANNELS 3 Zrotation Yrotation Xrotation
                                    JOINT RightHandFore3
                                    {
                                        OFFSET 0.127140 -0.016776 -0.017783
                                        CHANNELS 3 Zrotation Yrotation Xrotation
                                        End Site
                                        {
                                            OFFSET 0.114092 0.156038 -0.001373
                                        }
                                    }
                                }
                            }
                            JOINT RightHandMiddle1
                            {
                                OFFSET -0.709887 -0.008302 0.018525
                                CHANNELS 3 Zrotation Yrotation Xrotation
                                JOINT RightHandMiddle2
                                {
                                    OFFSET -0.105011 -0.220993 0.014021
                                    CHANNELS 3 Zrotation Yrotation Xrotation
                                    JOINT RightHandMiddle3
                                    {
                                        OFFSET 0.133804 0.053236 -0.025431
                                        CHANNELS 3 Zrotation Yrotation Xrotation
                                        End Site
                                        {
                                            OFFSET 0.126987 0.197484 -0.022465
                                        }
                                    }
                                }
                            }
                            JOINT RightHandRing1
                            {
                                OFFSET -0.743819 -0.005785 -0.153669
                                CHANNELS 3 Zrotation Yrotation Xrotation
                                JOINT RightHandRing2
                                {
                                    OFFSET -0.114952 -0.332253 0.033578
                                    CHANNELS 3 Zrotation Yrotation Xrotation
                                    JOINT RightHandRing3
                                    {
                                        OFFSET 0.122709 0.043604 -0.040572
                                        CHANNELS 3 Zrotation Yrotation Xrotation
                                        End Site
                                        {
                                            OFFSET 0.045879 0.110401 -0.011271
                                        }
                                    }
                                }
                            }
                            JOINT RightHandLittle1
                            {
                                OFFSET -0.689403 -0.053298 -0.308303
                                CHANNELS 3 Zrotation Yrotation Xrotation
                                JOINT RightHandLittle2
                                {
                                    OFFSET -0.051414 -0.185971 0.028751
                                    CHANNELS 3 Zrotation Yrotation Xrotation
                                    JOINT RightHandLittle3
                                    {
                                        OFFSET 0.115411 0.000397 -0.034289
                                        CHANNELS 3 Zrotation Yrotation Xrotation
                                        End Site
                                        {
                                            OFFSET 0.087090 0.167860 -0.022958
                                        }
                                    }
                                }
                            }
                        }
                    }
                }
            }
        }
    }
    JOINT LeftHip
    {
        OFFSET 0.685143 0.673822 -0.044491
        CHANNELS 3 Zrotation Yrotation Xrotation
        JOINT LeftKnee
        {
            OFFSET 0.085364 -3.750208 0.017676
            CHANNELS 3 Zrotation Yrotation Xrotation
            JOINT LeftAnkle
            {
                OFFSET 0.094583 -4.155206 0.019585
                CHANNELS 3 Zrotation Yrotation Xrotation
                JOINT LeftToe
                {
                    OFFSET -0.000000 -0.395925 0.621478
                    CHANNELS 3 Zrotation Yrotation Xrotation
                    End Site
                    {
                        OFFSET -0.000000 -0.077878 0.321152
                    }
                }
            }
        }
    }
    JOINT RightHip
    {
        OFFSET -0.685143 0.673822 -0.044492
        CHANNELS 3 Zrotation Yrotation Xrotation
        JOINT RightKnee
        {
            OFFSET -0.085364 -3.750208 0.017677
            CHANNELS 3 Zrotation Yrotation Xrotation
            JOINT RightAnkle
            {
                OFFSET -0.094583 -4.155206 0.019585
                CHANNELS 3 Zrotation Yrotation Xrotation
                JOINT RightToe
                {
                    OFFSET -0.000000 -0.395925 0.621478
                    CHANNELS 3 Zrotation Yrotation Xrotation
                    End Site
                    {
                        OFFSET -0.000000 -0.077878 0.321152
                    }
                }
            }
        }
    }
}
MOTION
Frames: 4
Frame Time: 0.033333
-0.030023 8.276052 -0.487584 180.000000 -0.000011 180.000000 -0.920187 -2.707393 -6.278430 1.243261 0.336130 -4.350637 12.141589 -5.524253 2.292796 0.518517 -9.969498 6.589344 1.479904 -8.151955 -0.034044 1.837691 -4.550689 -8.302113 177.045105 -72.988792 -177.821060 9.012203 -15.059065 8.403823 0.000005 -0.000009 0.000007 -4.716578 -1.952977 -3.183273 12.381386 10.278991 9.423584 42.975147 -2.642978 -8.457719 124.968231 -11.058620 -6.637929 54.724926 -6.945606 1.513901 -1.144595 3.773416 -2.054286 8.653538 0.080641 -1.002169 -2.439461 -0.013725 0.308933 -0.660309 5.258725 -4.032905 6.768546 0.589966 -0.697917 -12.985229 -0.777209 0.990332 4.218354 -3.808602 0.584687 -1.035630 -0.287523 0.045403 -22.318588 -4.762686 4.118694 -2.122495 3.309546 -0.003456 11.006787 -23.464279 -27.268017 -177.431427 69.381157 -178.229233 -8.321482 25.497658 25.661472 -0.000015 0.000021 -0.000012 -5.152410 -1.151225 3.023905 17.645189 2.311910 -2.704416 -41.721291 2.648143 -8.504986 -128.350067 -3.406139 -10.051344 -54.248177 1.457790 -6.106804 1.135562 -3.821301 -1.983166 -8.558332 0.045656 -1.635818 2.410366 -0.062110 0.478775 0.659451 -5.268352 -4.020413 -6.508415 0.061665 -2.086128 12.237244 -0.658759 4.392622 -4.217129 3.814939 0.563512 0.966264 -0.085735 0.451059 21.542776 -3.018147 7.011088 -1.984155 -0.545231 -4.133719 0.041483 0.326292 14.488730 1.572467 3.204477 -13.743819 0.002232 0.018298 -6.668308 -0.106811 -15.116820 -4.754274 -0.045599 -0.341872 15.196742 16.590355 4.943915 -9.900792 0.230102 2.784647 -8.905129
-0.030034 8.276052 -0.487584 180.000000 -0.000011 180.000000 -0.858275 -2.754755 -6.361525 1.190602 0.342668 -4.129028 12.191785 -5.409102 2.261112 0.507448 -9.760869 6.541878 3.534859 -7.077484 -0.039808 -2.529252 -1.814074 -27.305670 177.113953 -72.443130 -177.893173 21.602539 -18.561090 3.360656 0.000003 -0.000003 0.000014 -4.716580 -1.952972 -3.183273 12.381382 10.278980 9.423587 46.594467 -2.565228 -8.334321 128.656113 -11.016554 -7.103777 58.337952 -7.409682 1.371895 -1.144591 3.773421 -2.054281 8.653538 0.080642 -1.002174 -2.439444 -0.013747 0.309049 -0.660303 5.258724 -4.032909 6.768548 0.589968 -0.697915 -12.985225 -0.777204 0.990339 4.218359 -3.808595 0.584683 -1.035499 -0.287749 0.045363 -22.318588 -4.762689 4.118694 -4.222623 1.390817 0.013120 9.923072 -28.804527 -45.457592 -177.787933 64.298340 -178.616928 -17.959097 34.895374 19.777534 -0.000010 0.000007 0.000002 -5.152410 -1.151225 3.023907 17.645191 2.311914 -2.704414 -44.260124 2.591092 -8.419982 -129.686523 -3.564522 -9.992090 -56.263348 1.396321 -6.340924 1.135363 -3.821723 -1.981811 -8.558330 0.045657 -1.635823 2.410574 -0.062297 0.477708 0.659444 -5.268354 -4.020411 -6.508417 0.061662 -2.086130 12.237248 -0.658756 4.392621 -4.217212 3.814657 0.563970 0.966334 -0.086844 0.450794 21.542763 -3.018151 7.011086 -1.965241 0.022780 -4.144482 0.041460 0.326198 14.484471 0.047051 3.248859 -13.555983 -0.018809 -0.163755 -7.079498 -0.205103 -16.940876 -4.768060 -0.045595 -0.341856 15.196180 15.636325 6.596039 -9.612812 0.221351 2.616423 -8.793289
-0.030045 8.276052 -0.487584 180.000000 -0.000011 180.000000 -0.814143 -2.702172 -6.457932 1.148987 0.332562 -3.862752 12.249207 -5.410466 2.200869 0.509016 -9.790506 6.430298 5.443346 -5.662741 -0.043171 -5.549174 -1.407657 -46.683296 175.504379 -79.936218 -176.238708 33.979176 -22.115067 -1.864523 -0.000003 -0.000010 0.000008 -4.716579 -1.952969 -3.183272 12.381384 10.278987 9.423583 49.958199 -2.500051 -8.215390 130.592941 -11.016794 -7.464183 61.700233 -7.832232 1.213566 -1.144602 3.773417 -2.054280 8.653537 0.080639 -1.002174 -2.439436 -0.013753 0.309088 -0.660308 5.258728 -4.032908 6.768549 0.589971 -0.697915 -12.985230 -0.777211 0.990344 4.218339 -3.808598 0.584684 -1.035391 -0.287951 0.045339 -22.318590 -4.762684 4.118691 -5.308022 -0.892241 0.025764 14.769544 -31.214088 -64.945572 -177.464966 68.992599 -178.265121 -29.309746 41.892120 16.749996 -0.000003 0.000004 -0.000007 -5.152408 -1.151223 3.023907 17.645189 2.311912 -2.704413 -45.670708 2.561026 -8.371636 -129.699127 -3.593570 -9.901817 -56.586739 1.385693 -6.378271 1.135463 -3.824155 -1.981818 -8.558334 0.045653 -1.635823 2.410789 -0.062539 0.476579 0.659442 -5.268367 -4.020402 -6.508396 0.061667 -2.086124 12.237248 -0.658760 4.392617 -4.217284 3.814357 0.564627 0.966416 -0.087952 0.450516 21.542765 -3.018150 7.011088 -2.006816 -0.488447 -4.130424 0.041433 0.326098 14.479918 -1.849573 4.454513 -13.394138 -0.042512 -0.399156 -7.551737 -0.266230 -18.069960 -4.774930 -0.045592 -0.341850 15.195670 14.740015 8.452442 -9.556004 0.219475 2.373452 -8.346054
-0.030056 8.276052 -0.487584 180.000000 -0.000011 180.000000 -0.785303 -2.636309 -6.540278 1.146348 0.318513 -3.639912 12.310868 -5.504135 2.135543 0.519932 -9.996242 6.302996 6.398248 -4.211463 -0.041237 -7.077487 -1.653295 -60.534000 142.972168 -88.873558 -143.652725 41.007561 -26.505713 -6.083799 0.000000 -0.000009 0.000020 -4.716581 -1.952973 -3.183271 12.381385 10.278988 9.423582 52.755745 -2.451271 -8.113748 130.631958 -11.088464 -7.687387 64.500130 -8.176418 1.062373 -1.144582 3.773411 -2.054282 8.653540 0.080642 -1.002173 -2.439542 -0.012611 0.308207 -0.660295 5.258718 -4.032908 6.768547 0.589974 -0.697914 -12.985228 -0.777210 0.990338 4.218356 -3.808601 0.584688 -1.035253 -0.288485 0.043759 -22.318586 -4.762693 4.118693 -5.375572 -2.381554 0.030444 19.797569 -30.039597 -77.339584 -176.969330 73.550705 -177.741882 -38.089531 44.523563 17.677237 -0.000018 0.000009 -0.000012 -5.152412 -1.151227 3.023907 17.645191 2.311909 -2.704412 -47.042824 2.534946 -8.325947 -129.709747 -3.623103 -9.815347 -56.599823 1.386429 -6.381374 1.135441 -3.824286 -1.981656 -8.558331 0.045658 -1.635821 2.411011 -0.062872 0.475351 0.659438 -5.268349 -4.020409 -6.508397 0.061661 -2.086119 12.237259 -0.658762 4.392617 -4.217405 3.814157 0.565207 0.966501 -0.089061 0.450217 21.542778 -3.018159 7.011087 -2.098855 -1.890263 -4.094854 0.041410 0.326004 14.475657 -3.868490 6.540410 -13.346464 -0.064980 -0.666969 -8.066405 -0.152847 -15.968469 -4.760455 -0.045590 -0.341838 15.195249 13.526087 8.336267 -10.560167 0.211953 1.949814 -7.425572
